<svg xmlns="http://www.w3.org/2000/svg" viewBox="0 0 25.6 25.6"><defs><style>.cls-1{opacity:0.3;}.cls-2{fill:#535353;}</style></defs><title>Asset 1</title><g id="Layer_2" data-name="Layer 2"><g id="Layer_1-2" data-name="Layer 1"><g class="cls-1"><path class="cls-2" d="M23.47,2.4H20V.8a.8.8,0,0,0-1.6,0V2.4H13.6V.8A.8.8,0,0,0,12,.8V2.4H7.2V.8A.8.8,0,1,0,5.6.8V2.4H2.13A2.14,2.14,0,0,0,0,4.53V23.46A2.14,2.14,0,0,0,2.13,25.6H23.47a2.14,2.14,0,0,0,2.13-2.14V4.53A2.14,2.14,0,0,0,23.47,2.4ZM24,23.46a.53.53,0,0,1-.53.54H2.13a.53.53,0,0,1-.53-.54V4.53A.53.53,0,0,1,2.13,4H5.6V5.6a.8.8,0,0,0,1.6,0V4H12V5.6a.8.8,0,0,0,1.6,0V4h4.8V5.6a.8.8,0,0,0,1.6,0V4h3.47a.53.53,0,0,1,.53.53Zm0,0"/><rect class="cls-2" x="5.6" y="9.6" width="3.2" height="2.4"/><rect class="cls-2" x="5.6" y="13.6" width="3.2" height="2.4"/><rect class="cls-2" x="5.6" y="17.6" width="3.2" height="2.4"/><rect class="cls-2" x="11.2" y="17.6" width="3.2" height="2.4"/><rect class="cls-2" x="11.2" y="13.6" width="3.2" height="2.4"/><rect class="cls-2" x="11.2" y="9.6" width="3.2" height="2.4"/><rect class="cls-2" x="16.8" y="17.6" width="3.2" height="2.4"/><rect class="cls-2" x="16.8" y="13.6" width="3.2" height="2.4"/><rect class="cls-2" x="16.8" y="9.6" width="3.2" height="2.4"/></g></g></g></svg>