<svg xmlns="http://www.w3.org/2000/svg" viewBox="0 0 512 512"><defs><style>.cls-1{fill:#535353;opacity:0.3;}</style></defs><title>Asset 1</title><g id="Layer_2" data-name="Layer 2"><g id="Layer_1-2" data-name="Layer 1"><path class="cls-1" d="M437,75A256,256,0,1,0,75,437,256,256,0,1,0,437,75ZM376,110l11.25-46.75a234.11,234.11,0,0,1,93.42,130l-5.89,1.13a23.16,23.16,0,0,0-18,17.11l-2.29,9.22a.26.26,0,0,1-.21.23.26.26,0,0,1-.31,0l-13.66-10.24a23.19,23.19,0,0,0-24.56-2l-17,8.92a23.09,23.09,0,0,0,2.6,42.07l.81.3a.33.33,0,0,1,.13.52l-10.62,12.21a.33.33,0,0,1-.43.06l-28.62-18.47a23.08,23.08,0,0,0-35.3,15.67L325,283.44A23,23,0,0,0,332,304l14.93,14a.33.33,0,0,1,.05.42l-24.33,36.88a23.09,23.09,0,0,0-3.8,11.79l-2.11,52.79a.32.32,0,0,1-.1.22l-32.39,31.75a.33.33,0,0,1-.4.05l-21-12.31a.33.33,0,0,1-.16-.21s-10.19-46.24-10.57-47.27l-9.26-24.87a23.19,23.19,0,0,0-19.63-14.94l-42.4-3.69a.33.33,0,0,1-.26-.16l-24.12-41.59a.34.34,0,0,1,0-.22l6.07-40.34a.33.33,0,0,1,.13-.22l37-27.94a.33.33,0,0,1,.33,0l35.89,15a23.12,23.12,0,0,0,6.39,1.64l49.71,5.4a23,23,0,0,0,15.94-4.19l32.93-23.61a23.17,23.17,0,0,0,7.63-28.18l-3.05-6.84a23,23,0,0,0-19.82-13.64l-92.49-5.06a.34.34,0,0,1-.14,0l-.15-.1h0a.66.66,0,0,1,0-.44A.78.78,0,0,1,233,178l27.77-7.48a23.17,23.17,0,0,0,9.84-5.5l34-32a.33.33,0,0,1,.19-.09l51.1-5.26A23.11,23.11,0,0,0,376,110ZM202.88,91.24l19.1-36a26,26,0,0,0,2.5-17.38l-2.59-12.65a234,234,0,0,1,68.5,0,34.17,34.17,0,0,1-3.21,3.18L260.13,39.33a26.06,26.06,0,0,0-10.05,7.21L207.92,95.82a3.19,3.19,0,0,1-4.84,0C201.58,94.15,202.73,91.52,202.88,91.24ZM103.42,79.72v34.14a27.92,27.92,0,0,1-12.78,23.51l-24.5,15.89a50.54,50.54,0,0,0-14.3,14L29.61,199.81A233.58,233.58,0,0,1,103.42,79.72Zm14.87,335.87-3.22,26.14A234.23,234.23,0,0,1,35.34,331.59H49.82A5.18,5.18,0,0,1,54.19,334L83.47,379.6a28.08,28.08,0,0,0,4.69,5.55l28.48,26A5.19,5.19,0,0,1,118.29,415.58ZM256,489.24a231.82,231.82,0,0,1-119.77-33.17l4.65-37.7A28,28,0,0,0,132,394.31s-29.1-26.62-29.35-27L73.34,321.7a27.82,27.82,0,0,0-23.52-12.86h-21a233.13,233.13,0,0,1-6-52.84q0-2.94.07-5.87l47.82-70.07a27.75,27.75,0,0,1,7.9-7.73L103,156.46a50.59,50.59,0,0,0,23.15-42.6V62.32a232.16,232.16,0,0,1,73.39-32.64l2.63,12.8a3.2,3.2,0,0,1-.31,2.14l-19.1,36A56.53,56.53,0,0,0,180,88.72a25.94,25.94,0,0,0,25.43,31,26.1,26.1,0,0,0,19.74-9.08l42.16-49.27a3.2,3.2,0,0,1,1.24-.89L295.65,49.6a26,26,0,0,0,10-7.16l10.21-11.87A231.78,231.78,0,0,1,367,50.9c-.26.6-13.14,53.8-13.14,53.8a.33.33,0,0,1-.29.25l-51.11,5.26A23.21,23.21,0,0,0,289,116.39l-34,32a.32.32,0,0,1-.14.08L227.12,156a23.09,23.09,0,0,0,4.75,45.34l92.49,5.06a.33.33,0,0,1,.28.19l3.05,6.84a.33.33,0,0,1-.11.4l-32.93,23.61a.32.32,0,0,1-.23.06l-49.8-5.42-35.88-15A23.16,23.16,0,0,0,185.94,220l-37,27.95a23,23,0,0,0-8.92,15l-6.07,40.34a23.17,23.17,0,0,0,2.86,15l24.12,41.59a23.11,23.11,0,0,0,18,11.42l42.4,3.69a.33.33,0,0,1,.28.21l9.28,24.91,9.65,44.14a23.16,23.16,0,0,0,10.88,15l21,12.31a23.13,23.13,0,0,0,27.83-3.43l32.39-31.75a23,23,0,0,0,6.91-15.56L341.61,368a.32.32,0,0,1,.05-.17L366,330.95a23,23,0,0,0-3.5-29.57l-14.93-14a.33.33,0,0,1-.1-.29l2.21-13.49a.33.33,0,0,1,.5-.22l28.62,18.47a23.2,23.2,0,0,0,29.94-4.25l10.62-12.21A23.08,23.08,0,0,0,410,238.65l-.81-.3-.16-.07a.6.6,0,0,1,0-.43.75.75,0,0,1,.15-.1l17-8.92a.33.33,0,0,1,.35,0l13.66,10.24a23.08,23.08,0,0,0,36.26-12.91L478.8,217a.33.33,0,0,1,.26-.24l6.65-1.28A233.43,233.43,0,0,1,489.24,256C489.24,384.61,384.61,489.24,256,489.24Z"/></g></g></svg>