<svg xmlns="http://www.w3.org/2000/svg" viewBox="0 0 48 48"><defs><style>.cls-1{fill:#535353;opacity:0.3;}</style></defs><title>Asset 1</title><g id="Layer_2" data-name="Layer 2"><g id="Layer_1-2" data-name="Layer 1"><path class="cls-1" d="M47.2,23.2H45.58A21.61,21.61,0,0,0,24.8,2.42V.8a.8.8,0,1,0-1.6,0V2.42A21.61,21.61,0,0,0,2.42,23.2H.8a.8.8,0,0,0,0,1.6H2.42A21.61,21.61,0,0,0,23.2,45.58V47.2a.8.8,0,1,0,1.6,0V45.58A21.61,21.61,0,0,0,45.58,24.8H47.2a.8.8,0,1,0,0-1.6ZM24.8,44V42.4a.8.8,0,0,0-1.6,0V44A20,20,0,0,1,4,24.8H5.6a.8.8,0,0,0,0-1.6H4A20,20,0,0,1,23.2,4V5.6a.8.8,0,0,0,1.6,0V4A20,20,0,0,1,44,23.2H42.4a.8.8,0,0,0,0,1.6H44A20,20,0,0,1,24.8,44Zm0,0"/><path class="cls-1" d="M33.6,23.2H29.54a5.6,5.6,0,0,0-4.73-4.73V14.4a.8.8,0,0,0-1.6,0v4.07a5.6,5.6,0,0,0-4.73,4.73H14.4a.8.8,0,0,0,0,1.6h4.07a5.6,5.6,0,0,0,4.73,4.73V33.6a.8.8,0,0,0,1.6,0V29.54a5.6,5.6,0,0,0,4.73-4.73H33.6a.8.8,0,0,0,0-1.6ZM24,28a4,4,0,1,1,4-4,4,4,0,0,1-4,4Zm0,0"/></g></g></svg>